<!-- icon666.com - MILLIONS vector ICONS FREE --><svg viewBox="0 0 48 48" xmlns="http://www.w3.org/2000/svg"><g id="crescent,-islam,-moon,-muslim,-ramadhan" fill="none" fill-rule="nonzero"><path id="Path" d="m11.9257334 8.59518369c.7419757-.62656444 1.8515434.06559177 1.6150912 1.00750546-.3580199 1.42618255-.5408246 2.89920135-.5408246 4.39731085 0 9.9411255 8.0588745 18 18 18 3.7929464 0 7.4067075-1.1747448 10.4297596-3.3277709.7914393-.5636653 1.8406186.2185289 1.5263701 1.137954-2.6746396 7.8254356-10.0526961 13.1898169-18.4561297 13.1898169-10.7695526 0-19.5-8.7304474-19.5-19.5 0-5.8191604 2.56540019-11.2227152 6.9257334-14.90481631z" fill="#2eaff0"></path><path id="Path" d="m28.1032639 10.5574343c.3475077-.70412753 1.3620772-.79496442 1.7934722 0l1.5302639 3.1015657 3.4231374.497291c.7400484.1075354 1.1945944 1.0568842.5542134 1.7056934l-2.4773508 2.4140156.5853198 3.4090569c.1273731.7426419-.5853198 1.4507423-1.4509494 1.0541765l-3.0613704-1.6092334-3.0613704 1.6092334c-.6652666.3497514-1.5626304-.1355665-1.4509494-1.0541765l.5843198-3.4090569-2.4763508-2.4140156c-.5355041-.5219875-.3654207-1.5574771.5542134-1.7056934l3.4221374-.497291z" fill="#a5e1ff"></path></g></svg>