<!-- icon666.com - MILLIONS vector ICONS FREE --><svg id="Layer_1" viewBox="0 0 256 256" xmlns="http://www.w3.org/2000/svg"><g><g><circle cx="128" cy="128" fill="#fec246" r="54.242"></circle></g><g><g><g><path d="m128.001 61.342c-3.866 0-7-3.134-7-7v-15.381c0-3.866 3.134-7 7-7s7 3.134 7 7v15.381c0 3.866-3.134 7-7 7z" fill="#fec246"></path></g><g><path d="m128.001 224.039c-3.866 0-7-3.134-7-7v-15.381c0-3.866 3.134-7 7-7s7 3.134 7 7v15.381c0 3.866-3.134 7-7 7z" fill="#fec246"></path></g></g><g><g><path d="m192.145 98.781c-2.442 0-4.814-1.28-6.103-3.561-1.899-3.366-.713-7.636 2.654-9.537l13.394-7.563c3.367-1.901 7.637-.712 9.537 2.654s.713 7.636-2.654 9.537l-13.394 7.563c-1.087.616-2.268.907-3.434.907z" fill="#fec246"></path></g><g><path d="m50.476 178.782c-2.443 0-4.816-1.28-6.103-3.56-1.9-3.367-.712-7.638 2.654-9.537l13.395-7.563c3.37-1.902 7.638-.712 9.537 2.654 1.9 3.367.712 7.637-2.654 9.537l-13.395 7.562c-1.088.616-2.269.907-3.434.907z" fill="#fec246"></path></g></g><g><g><path d="m63.856 98.781c-1.165 0-2.347-.291-3.435-.905l-13.395-7.563c-3.366-1.9-4.555-6.171-2.654-9.537s6.168-4.556 9.537-2.654l13.395 7.563c3.366 1.9 4.555 6.171 2.654 9.537-1.286 2.279-3.658 3.559-6.102 3.559z" fill="#fec246"></path></g><g><path d="m205.523 178.782c-1.164 0-2.347-.291-3.435-.905l-13.394-7.563c-3.366-1.899-4.555-6.17-2.654-9.537 1.9-3.365 6.169-4.557 9.537-2.653l13.395 7.562c3.365 1.9 4.555 6.172 2.653 9.537-1.285 2.279-3.657 3.559-6.102 3.559z" fill="#fec246"></path></g></g></g></g><g><g><path d="m165.515 128.497c-1.981 0-3.702-1.472-3.962-3.489-2.16-16.759-15.941-29.973-32.771-31.419-2.201-.189-3.832-2.127-3.643-4.328s2.124-3.824 4.328-3.643c20.552 1.767 37.383 17.902 40.02 38.367.282 2.191-1.265 4.196-3.456 4.479-.174.022-.346.033-.516.033z" fill="#ffe9c5"></path></g></g></svg>